<svg width="109" height="46" viewBox="0 0 109 46" fill="none" xmlns="http://www.w3.org/2000/svg">
    <rect x="57.9453" y="2" width="41.8797" height="56.5063" transform="rotate(90 57.9453 2)" fill="#C0D8FD"
        stroke="black" stroke-width="2" />
    <rect x="51.4453" y="7.68823" width="31.3161" height="43.9112" transform="rotate(90 51.4453 7.68823)" fill="white"
        stroke="black" stroke-width="2" />
    <path d="M7.11269 6.87793L2.49465 2.08227L56.5852 2.08228L51.6786 6.87793L7.11269 6.87793Z" fill="#DEEAFE"
        stroke="black" stroke-width="2" />
    <path d="M8.43925 39.4581L3.24147 43.8762L56.2144 43.8762L50.7568 39.4581L8.43925 39.4581Z" fill="#DEEAFE"
        stroke="black" stroke-width="2" />
    <mask id="path-5-inside-1_960_52956" fill="white">
        <path fill-rule="evenodd" clip-rule="evenodd"
            d="M18.3157 33.3229L25.0195 27.2429L18.3157 21.3726L18.3157 23.8539L12.3053 23.8539L12.3053 30.5578L18.3157 30.5578L18.3157 33.3229Z" />
    </mask>
    <path fill-rule="evenodd" clip-rule="evenodd"
        d="M18.3157 33.3229L25.0195 27.2429L18.3157 21.3726L18.3157 23.8539L12.3053 23.8539L12.3053 30.5578L18.3157 30.5578L18.3157 33.3229Z"
        fill="#C0D8FD" />
    <path
        d="M25.0195 27.2429L26.3631 28.7244L28.0255 27.2167L26.3371 25.7382L25.0195 27.2429ZM18.3157 33.3229L16.3157 33.3229L16.3157 37.8368L19.6593 34.8044L18.3157 33.3229ZM18.3157 21.3726L19.6333 19.8679L16.3157 16.9628L16.3157 21.3726L18.3157 21.3726ZM18.3157 23.8539L18.3157 25.8539L20.3157 25.8539L20.3157 23.8539L18.3157 23.8539ZM12.3053 23.8539L12.3053 21.8539L10.3053 21.8539L10.3053 23.8539L12.3053 23.8539ZM12.3053 30.5578L10.3053 30.5578L10.3053 32.5578L12.3053 32.5578L12.3053 30.5578ZM18.3157 30.5578L20.3157 30.5578L20.3157 28.5578L18.3157 28.5578L18.3157 30.5578ZM23.6759 25.7614L16.9721 31.8414L19.6593 34.8044L26.3631 28.7244L23.6759 25.7614ZM16.9981 22.8772L23.702 28.7476L26.3371 25.7382L19.6333 19.8679L16.9981 22.8772ZM20.3157 23.8539L20.3157 21.3726L16.3157 21.3726L16.3157 23.8539L20.3157 23.8539ZM12.3053 25.8539L18.3157 25.8539L18.3157 21.8539L12.3053 21.8539L12.3053 25.8539ZM14.3053 30.5578L14.3053 23.8539L10.3053 23.8539L10.3053 30.5578L14.3053 30.5578ZM18.3157 28.5578L12.3053 28.5578L12.3053 32.5578L18.3157 32.5578L18.3157 28.5578ZM20.3157 33.3229L20.3157 30.5578L16.3157 30.5578L16.3157 33.3229L20.3157 33.3229Z"
        fill="black" mask="url(#path-5-inside-1_960_52956)" />
    <path d="M6.89648 7.00342L0.844308 1.40636" stroke="black" stroke-width="2" />
    <path d="M51.9504 7.38048L58.5397 1.40604" stroke="black" stroke-width="2" />
    <rect x="106.934" y="2.00024" width="41.9992" height="41.5918" transform="rotate(90 106.934 2.00024)" fill="#C0D8FD"
        stroke="black" stroke-width="2" />
    <rect x="100.414" y="7.70386" width="31.4068" height="28.9624" transform="rotate(90 100.414 7.70386)" fill="white"
        stroke="black" stroke-width="2" />
    <line x1="100.824" y1="38.9275" x2="107.342" y2="44.2237" stroke="black" stroke-width="2" />
    <path d="M70.709 7.02002L64.6403 1.40773" stroke="black" stroke-width="2" />
    <path d="M101.223 7.3982L107.83 1.4075" stroke="black" stroke-width="2" />
    <path d="M70.6465 39.7034L64.6395 44.5922" stroke="black" stroke-width="2" />
    <line x1="93.5079" y1="11.8863" x2="89.2393" y2="16.1549" stroke="black" stroke-width="2" />
    <line x1="96.3593" y1="16.1549" x2="92.0907" y2="11.8863" stroke="black" stroke-width="2" />
</svg>