<svg width="86" height="46" viewBox="0 0 86 46" fill="none" xmlns="http://www.w3.org/2000/svg">
    <rect x="85.5" y="0.500244" width="35" height="75" transform="rotate(90 85.5 0.500244)" fill="#D5EEEA"
        stroke="#78C9B8" />
    <rect x="79.5" y="6.50024" width="35" height="75" transform="rotate(90 79.5 6.50024)" fill="#D5EEEA"
        stroke="#78C9B8" />
    <rect x="73.5" y="12.5002" width="33" height="73" transform="rotate(90 73.5 12.5002)" fill="#D5EEEA"
        stroke="#78C9B8" />
    <ellipse cx="39" cy="29.0002" rx="12" ry="13" fill="white" />
    <path
        d="M38.2102 39.0902V18.8062H39.9042V39.0902H38.2102ZM33.3482 25.4062C33.3482 24.4676 33.5902 23.6389 34.0742 22.9202C34.5582 22.2016 35.2256 21.6442 36.0762 21.2482C36.9416 20.8376 37.9389 20.6322 39.0682 20.6322C40.1536 20.6322 41.0922 20.8229 41.8842 21.2042C42.6909 21.5856 43.3142 22.1282 43.7542 22.8322C44.2089 23.5362 44.4509 24.3722 44.4802 25.3402H41.7522C41.7229 24.6069 41.4662 24.0422 40.9822 23.6462C40.5129 23.2502 39.8602 23.0522 39.0242 23.0522C38.1296 23.0522 37.4182 23.2576 36.8902 23.6682C36.3622 24.0642 36.0982 24.6142 36.0982 25.3182C36.0982 25.8902 36.2596 26.3522 36.5822 26.7042C36.9049 27.0562 37.4182 27.3129 38.1222 27.4742L40.6522 28.0462C42.0602 28.3542 43.0942 28.8602 43.7542 29.5642C44.4142 30.2536 44.7442 31.1849 44.7442 32.3582C44.7442 33.3409 44.5022 34.2062 44.0182 34.9542C43.5342 35.7022 42.8449 36.2816 41.9502 36.6922C41.0702 37.0882 40.0362 37.2862 38.8482 37.2862C37.7189 37.2862 36.7289 37.0956 35.8782 36.7142C35.0276 36.3182 34.3602 35.7682 33.8762 35.0642C33.4069 34.3602 33.1576 33.5316 33.1282 32.5782H35.9442C35.9589 33.2969 36.2229 33.8542 36.7362 34.2502C37.2496 34.6462 37.9609 34.8442 38.8702 34.8442C39.8382 34.8442 40.6009 34.6462 41.1582 34.2502C41.7302 33.8396 42.0162 33.2969 42.0162 32.6222C42.0162 31.5076 41.3636 30.8036 40.0582 30.5102L37.5062 29.9602C36.1276 29.6669 35.0862 29.1389 34.3822 28.3762C33.6929 27.5989 33.3482 26.6089 33.3482 25.4062Z"
        fill="#78C9B8" />
</svg>