<svg width="61" height="63" viewBox="0 0 61 63" fill="none" xmlns="http://www.w3.org/2000/svg">
    <path
        d="M7.1536 43.6041L7.15358 43.6041C-5.02638 26.9235 2.52019 5.33481 21.6135 1.51822L21.4665 0.782841L21.6135 1.51822C29.4834 -0.0549275 36.2492 0.828564 41.4625 3.79338C46.6664 6.75288 50.4091 11.8344 52.1575 18.8326L52.1575 18.8327C52.7844 21.3406 53.204 22.855 53.951 24.4505C54.6918 26.0326 55.7456 27.6747 57.5973 30.4634C58.5052 31.8307 59.1179 32.9255 59.4525 33.8223C59.7866 34.718 59.8128 35.3347 59.6614 35.7974C59.5125 36.2525 59.1452 36.6997 58.3818 37.1577C57.6118 37.6197 56.5092 38.0499 55.0112 38.4929L55.0111 38.493C54.6847 38.5895 54.3565 38.7593 54.0947 39.0919C53.85 39.4027 53.7153 39.7913 53.6291 40.2245C53.4603 41.0722 53.423 42.4075 53.4225 44.4933V44.4934C53.4219 48.4224 52.8167 51.0273 51.5757 52.7073C50.365 54.3464 48.4419 55.2425 45.4344 55.4919L45.4343 55.4919L45.3983 55.4949C44.5975 55.5614 43.9476 55.6153 43.448 55.7004C42.9533 55.7847 42.4663 55.9186 42.0948 56.2413C41.6918 56.5915 41.5439 57.054 41.4802 57.5095C41.4209 57.9336 41.421 58.4677 41.421 59.0772V59.1282C41.421 59.7169 41.414 60.1977 41.3743 60.6027C41.3346 61.0085 41.2659 61.2884 41.1705 61.4893C41.0831 61.6731 40.9668 61.8054 40.7862 61.9125C40.5908 62.0284 40.2884 62.1329 39.8069 62.1937C38.8272 62.3174 37.314 62.2385 34.9554 61.9488C32.6145 61.6612 29.5126 61.1764 25.3889 60.5219C24.856 60.4373 24.341 60.3557 23.8432 60.2769C20.4243 59.7355 17.8181 59.3228 15.827 58.9426C13.5255 58.503 12.1406 58.1223 11.3018 57.6844C10.8968 57.4729 10.6541 57.2651 10.4992 57.061C10.3474 56.861 10.2481 56.623 10.1929 56.2992C10.0862 55.6735 10.1557 54.8731 10.2613 53.6575C10.276 53.4877 10.2915 53.3098 10.3073 53.1231L10.3197 52.9758C10.4933 50.926 10.5984 49.6843 10.1725 48.4097C9.75872 47.1716 8.85016 45.9274 7.25972 43.7494L7.1536 43.6041M54.1725 44.4935Z"
        fill="#E96C61" stroke="black" stroke-width="1.5" />
    <path
        d="M35.7364 20.2422C35.7364 26.867 30.366 32.2374 23.7413 32.2374C17.1165 32.2374 11.7461 26.867 11.7461 20.2422C11.7461 13.6175 17.1165 8.24707 23.7413 8.24707C30.366 8.24707 35.7364 13.6175 35.7364 20.2422Z"
        fill="#F6C4C0" stroke="black" stroke-width="1.5" />
    <line y1="-0.75" x2="24.1228" y2="-0.75" transform="matrix(0.702652 -0.711534 0.702652 0.711534 16.2441 29.9094)"
        stroke="black" stroke-width="1.5" />
    <path d="M13.9219 26.8762L30.1993 10.5988" stroke="black" stroke-width="1.5" />
    <path d="M12.4961 24.3657L27.8653 8.99656" stroke="black" stroke-width="1.5" />
    <path d="M11.7461 20.9919L24.4916 8.62175" stroke="black" stroke-width="1.5" />
    <path d="M12.4276 16.5675L19.9695 8.77228" stroke="black" stroke-width="1.5" />
</svg>