<svg width="74" height="44" viewBox="0 0 74 44" fill="none" xmlns="http://www.w3.org/2000/svg">
    <path
        d="M72.3445 20.9549C57.2028 49.0674 16.7972 49.0674 1.65554 20.9549C18.1831 -4.74739 55.8169 -4.74739 72.3445 20.9549Z"
        fill="white" stroke="black" stroke-width="2" />
    <mask id="mask0_960_52930" style="mask-type:alpha" maskUnits="userSpaceOnUse" x="20" y="5" width="34" height="34">
        <mask id="path-2-inside-1_960_52930" fill="white">
            <path fill-rule="evenodd" clip-rule="evenodd"
                d="M35.6995 5.51167C32.0192 5.86189 28.6942 7.43049 26.1322 9.80959L32.2343 15.9117C33.2099 15.0777 34.3949 14.4816 35.6995 14.2132L35.6995 5.51167ZM37.6995 14.0656C39.0645 14.14 40.3356 14.5675 41.423 15.2582L47.5856 9.09564C44.8736 6.89229 41.4428 5.53933 37.6995 5.44287V14.0656ZM35.6995 29.4044L35.6995 38.1057C31.9122 37.7453 28.5012 36.0946 25.9108 33.5982L32.0061 27.5029C33.0226 28.4432 34.2914 29.1146 35.6995 29.4044ZM37.6995 38.1745C41.5521 38.0752 45.0736 36.645 47.8213 34.3266L41.6821 28.1874C40.5397 28.979 39.1745 29.4716 37.6995 29.552V38.1745ZM24.5564 32.1241L30.7197 25.9608C29.9573 24.7604 29.5157 23.3362 29.5157 21.8088V21.8087H20.8984C20.8985 25.7188 22.2692 29.3087 24.5564 32.1241ZM21.0194 19.8087L29.7761 19.8087C30.0088 18.9347 30.3902 18.1214 30.8918 17.3976L24.7516 11.2574C22.7523 13.627 21.4136 16.5721 21.0194 19.8087ZM53.5202 19.8087C53.0798 16.1935 51.4611 12.942 49.0597 10.45L42.965 16.5446C43.8087 17.4568 44.4359 18.572 44.7651 19.8087L53.5202 19.8087ZM53.6411 21.8087C53.6411 26.1103 51.9821 30.0243 49.2691 32.9459L43.1679 26.8448C44.3261 25.4898 45.0254 23.731 45.0254 21.8088C45.0254 21.8088 45.0254 21.8088 45.0254 21.8087H53.6411Z" />
        </mask>
        <path fill-rule="evenodd" clip-rule="evenodd"
            d="M35.6995 5.51167C32.0192 5.86189 28.6942 7.43049 26.1322 9.80959L32.2343 15.9117C33.2099 15.0777 34.3949 14.4816 35.6995 14.2132L35.6995 5.51167ZM37.6995 14.0656C39.0645 14.14 40.3356 14.5675 41.423 15.2582L47.5856 9.09564C44.8736 6.89229 41.4428 5.53933 37.6995 5.44287V14.0656ZM35.6995 29.4044L35.6995 38.1057C31.9122 37.7453 28.5012 36.0946 25.9108 33.5982L32.0061 27.5029C33.0226 28.4432 34.2914 29.1146 35.6995 29.4044ZM37.6995 38.1745C41.5521 38.0752 45.0736 36.645 47.8213 34.3266L41.6821 28.1874C40.5397 28.979 39.1745 29.4716 37.6995 29.552V38.1745ZM24.5564 32.1241L30.7197 25.9608C29.9573 24.7604 29.5157 23.3362 29.5157 21.8088V21.8087H20.8984C20.8985 25.7188 22.2692 29.3087 24.5564 32.1241ZM21.0194 19.8087L29.7761 19.8087C30.0088 18.9347 30.3902 18.1214 30.8918 17.3976L24.7516 11.2574C22.7523 13.627 21.4136 16.5721 21.0194 19.8087ZM53.5202 19.8087C53.0798 16.1935 51.4611 12.942 49.0597 10.45L42.965 16.5446C43.8087 17.4568 44.4359 18.572 44.7651 19.8087L53.5202 19.8087ZM53.6411 21.8087C53.6411 26.1103 51.9821 30.0243 49.2691 32.9459L43.1679 26.8448C44.3261 25.4898 45.0254 23.731 45.0254 21.8088C45.0254 21.8088 45.0254 21.8088 45.0254 21.8087H53.6411Z"
            fill="#D9D9D9" />
        <path
            d="M26.1322 9.80959L24.7713 8.34405L23.2505 9.75629L24.718 11.2238L26.1322 9.80959ZM35.6995 5.51167L37.6995 5.51167L37.6995 3.31232L35.51 3.52067L35.6995 5.51167ZM32.2343 15.9117L30.8201 17.3259L32.128 18.6338L33.5339 17.4319L32.2343 15.9117ZM35.6995 14.2132L36.1026 16.1721L37.6995 15.8436V14.2132H35.6995ZM41.423 15.2582L40.3506 16.9464L41.7037 17.8059L42.8373 16.6724L41.423 15.2582ZM37.6995 14.0656H35.6995V15.9595L37.5906 16.0626L37.6995 14.0656ZM47.5856 9.09564L48.9998 10.5099L50.5679 8.94174L48.8467 7.54337L47.5856 9.09564ZM37.6995 5.44287L37.751 3.44353L35.6995 3.39067V5.44287H37.6995ZM35.6995 38.1057L35.51 40.0967L37.6995 40.305V38.1057H35.6995ZM35.6995 29.4044H37.6995L37.6995 27.774L36.1026 27.4454L35.6995 29.4044ZM25.9108 33.5982L24.4965 32.184L23.0559 33.6246L24.5229 35.0383L25.9108 33.5982ZM32.0061 27.5029L33.3642 26.0347L31.9521 24.7285L30.5919 26.0887L32.0061 27.5029ZM47.8213 34.3266L49.111 35.8551L50.7746 34.4515L49.2355 32.9123L47.8213 34.3266ZM37.6995 38.1745H35.6995V40.2267L37.751 40.1738L37.6995 38.1745ZM41.6821 28.1874L43.0963 26.7732L41.9156 25.5924L40.543 26.5435L41.6821 28.1874ZM37.6995 29.552L37.5906 27.5549L35.6995 27.658V29.552H37.6995ZM30.7197 25.9608L32.134 27.375L33.2674 26.2416L32.408 24.8885L30.7197 25.9608ZM24.5564 32.1241L23.0041 33.3852L24.4025 35.1065L25.9706 33.5383L24.5564 32.1241ZM29.5157 21.8087H31.5157V19.8087H29.5157V21.8087ZM20.8984 21.8087V19.8087H18.8984L18.8984 21.8088L20.8984 21.8087ZM29.7761 19.8087V21.8087H31.3134L31.7088 20.3232L29.7761 19.8087ZM21.0194 19.8087L19.034 19.5669L18.761 21.8087H21.0194L21.0194 19.8087ZM30.8918 17.3976L32.5357 18.5366L33.4867 17.164L32.306 15.9833L30.8918 17.3976ZM24.7516 11.2574L26.1658 9.84322L24.6267 8.30408L23.223 9.9677L24.7516 11.2574ZM49.0597 10.45L50.4998 9.06222L49.0861 7.59516L47.6455 9.0358L49.0597 10.45ZM53.5202 19.8087V21.8087H55.7785L55.5055 19.5669L53.5202 19.8087ZM42.965 16.5446L41.5508 15.1304L40.1907 16.4905L41.4968 17.9026L42.965 16.5446ZM44.7651 19.8087L42.8324 20.3232L43.2278 21.8087H44.7651V19.8087ZM53.6411 21.8087L55.6411 21.8088L55.6411 19.8087H53.6411V21.8087ZM49.2691 32.9459L47.8549 34.3602L49.3224 35.8277L50.7347 34.3069L49.2691 32.9459ZM43.1679 26.8448L41.6476 25.5453L40.4459 26.9512L41.7537 28.259L43.1679 26.8448ZM45.0254 21.8087V19.8087H43.0254V21.8087H45.0254ZM27.4932 11.2751C29.7442 9.18476 32.6613 7.80983 35.889 7.50268L35.51 3.52067C31.3771 3.91396 27.6441 5.67623 24.7713 8.34405L27.4932 11.2751ZM33.6485 14.4975L27.5464 8.39538L24.718 11.2238L30.8201 17.3259L33.6485 14.4975ZM35.2964 12.2542C33.6519 12.5926 32.1604 13.3437 30.9347 14.3914L33.5339 17.4319C34.2594 16.8117 35.1378 16.3706 36.1026 16.1721L35.2964 12.2542ZM33.6995 5.51167L33.6995 14.2132H37.6995V5.51167L33.6995 5.51167ZM42.4954 13.57C41.1267 12.7006 39.5252 12.1622 37.8084 12.0686L37.5906 16.0626C38.6039 16.1179 39.5445 16.4343 40.3506 16.9464L42.4954 13.57ZM46.1714 7.68143L40.0088 13.844L42.8373 16.6724L48.9998 10.5099L46.1714 7.68143ZM37.648 7.44221C40.9343 7.52689 43.943 8.71315 46.3245 10.6479L48.8467 7.54337C45.8041 5.07144 41.9513 3.55176 37.751 3.44353L37.648 7.44221ZM39.6995 14.0656V5.44287H35.6995V14.0656H39.6995ZM37.6995 38.1057V29.4044H33.6995L33.6995 38.1057H37.6995ZM24.5229 35.0383C27.4275 37.8375 31.2569 39.6919 35.51 40.0967L35.889 36.1146C32.5676 35.7986 29.5748 34.3517 27.2986 32.1581L24.5229 35.0383ZM30.5919 26.0887L24.4965 32.184L27.325 35.0124L33.4203 28.9171L30.5919 26.0887ZM36.1026 27.4454C35.0614 27.2312 34.1205 26.7343 33.3642 26.0347L30.648 28.9711C31.9247 30.152 33.5213 30.9981 35.2964 31.3633L36.1026 27.4454ZM46.5315 32.798C44.1185 34.8341 41.03 36.088 37.648 36.1751L37.751 40.1738C42.0742 40.0624 46.0288 38.4559 49.111 35.8551L46.5315 32.798ZM40.2679 29.6016L46.4071 35.7408L49.2355 32.9123L43.0963 26.7732L40.2679 29.6016ZM37.8084 31.549C39.6639 31.4478 41.384 30.8272 42.8212 29.8313L40.543 26.5435C39.6955 27.1307 38.6851 27.4953 37.5906 27.5549L37.8084 31.549ZM39.6995 38.1745V29.552H35.6995V38.1745H39.6995ZM29.3055 24.5466L23.1422 30.7099L25.9706 33.5383L32.134 27.375L29.3055 24.5466ZM27.5157 21.8088C27.5157 23.727 28.0715 25.5216 29.0315 27.0331L32.408 24.8885C31.8431 23.9992 31.5157 22.9453 31.5157 21.8088H27.5157ZM27.5157 21.8087V21.8088H31.5157V21.8087H27.5157ZM20.8984 23.8087H29.5157V19.8087H20.8984V23.8087ZM26.1087 30.8631C24.1006 28.3911 22.8985 25.243 22.8984 21.8087L18.8984 21.8088C18.8985 26.1946 20.4379 30.2263 23.0041 33.3852L26.1087 30.8631ZM29.7761 17.8087L21.0194 17.8087L21.0194 21.8087L29.7761 21.8087V17.8087ZM29.2478 16.2585C28.6172 17.1686 28.1366 18.1927 27.8434 19.2943L31.7088 20.3232C31.8809 19.6768 32.1633 19.0742 32.5357 18.5366L29.2478 16.2585ZM23.3374 12.6716L29.4775 18.8118L32.306 15.9833L26.1658 9.84322L23.3374 12.6716ZM23.0047 20.0506C23.3504 17.2123 24.5239 14.6287 26.2802 12.5472L23.223 9.9677C20.9807 12.6253 19.4768 15.9319 19.034 19.5669L23.0047 20.0506ZM47.6195 11.8378C49.7298 14.0277 51.1488 16.8807 51.5348 20.0506L55.5055 19.5669C55.0109 15.5063 53.1924 11.8564 50.4998 9.06222L47.6195 11.8378ZM44.3793 17.9588L50.4739 11.8642L47.6455 9.0358L41.5508 15.1304L44.3793 17.9588ZM46.6978 19.2943C46.2828 17.7353 45.4928 16.3322 44.4333 15.1866L41.4968 17.9026C42.1245 18.5813 42.5889 19.4087 42.8324 20.3232L46.6978 19.2943ZM44.7651 21.8087L53.5202 21.8087V17.8087L44.7651 17.8087V21.8087ZM51.6411 21.8087C51.6411 25.5858 50.1866 29.0187 47.8035 31.585L50.7347 34.3069C53.7776 31.0299 55.6411 26.6347 55.6411 21.8088L51.6411 21.8087ZM50.6833 31.5317L44.5821 25.4306L41.7537 28.259L47.8549 34.3602L50.6833 31.5317ZM44.6882 28.1443C46.1443 26.4408 47.0254 24.2252 47.0254 21.8088H43.0254C43.0254 23.2368 42.5079 24.5389 41.6476 25.5453L44.6882 28.1443ZM47.0254 21.8088C47.0254 21.8088 47.0254 21.8088 47.0254 21.8088V21.8088C47.0254 21.8088 47.0254 21.8088 47.0254 21.8088V21.8088C47.0254 21.8088 47.0254 21.8088 47.0254 21.8088V21.8088C47.0254 21.8088 47.0254 21.8088 47.0254 21.8088C47.0254 21.8088 47.0254 21.8088 47.0254 21.8088C47.0254 21.8088 47.0254 21.8088 47.0254 21.8088C47.0254 21.8088 47.0254 21.8088 47.0254 21.8088C47.0254 21.8088 47.0254 21.8088 47.0254 21.8088C47.0254 21.8088 47.0254 21.8088 47.0254 21.8088V21.8088C47.0254 21.8088 47.0254 21.8088 47.0254 21.8088V21.8088C47.0254 21.8088 47.0254 21.8088 47.0254 21.8088V21.8087C47.0254 21.8087 47.0254 21.8087 47.0254 21.8087H43.0254C43.0254 21.8087 43.0254 21.8087 43.0254 21.8087V21.8088C43.0254 21.8088 43.0254 21.8088 43.0254 21.8088V21.8088C43.0254 21.8088 43.0254 21.8088 43.0254 21.8088V21.8088C43.0254 21.8088 43.0254 21.8088 43.0254 21.8088C43.0254 21.8088 43.0254 21.8088 43.0254 21.8088C43.0254 21.8088 43.0254 21.8088 43.0254 21.8088C43.0254 21.8088 43.0254 21.8088 43.0254 21.8088C43.0254 21.8088 43.0254 21.8088 43.0254 21.8088C43.0254 21.8088 43.0254 21.8088 43.0254 21.8088V21.8088C43.0254 21.8088 43.0254 21.8088 43.0254 21.8088V21.8088C43.0254 21.8088 43.0254 21.8088 43.0254 21.8088V21.8088C43.0254 21.8088 43.0254 21.8088 43.0254 21.8088H47.0254ZM53.6411 19.8087H45.0254V23.8087H53.6411V19.8087Z"
            fill="black" mask="url(#path-2-inside-1_960_52930)" />
    </mask>
    <g mask="url(#mask0_960_52930)">
        <path
            d="M50.2733 8.45312L38.1309 21.8087C51.3771 21.8087 55.7926 21.5183 55.7926 21.5183C55.7926 21.5183 56.0685 14.5502 50.2733 8.45312Z"
            fill="#4B6AF0" />
        <path
            d="M37.1664 3.13929L37.2516 21.1893C47.0105 12.2323 50.0671 9.03274 50.0671 9.03274C50.0671 9.03274 45.5587 3.71252 37.1664 3.13929Z"
            fill="#78C9B8" />
        <path
            d="M25.3197 9.90879L37.5802 21.0733C37.7031 9.03156 37.475 5.01491 37.475 5.01491C37.475 5.01491 31.022 4.69817 25.3197 9.90879Z"
            fill="#F1D356" />
        <path
            d="M19.9477 21.7598L36.5297 21.6877C28.474 12.7365 25.5889 9.93268 25.5889 9.93268C25.5889 9.93268 20.6223 14.0648 19.9477 21.7598Z"
            fill="#F29C4D" />
        <path
            d="M25.717 33.5301L36.5231 20.9526C24.4829 21.1772 20.4745 21.521 20.4745 21.521C20.4745 21.521 20.3441 27.9804 25.717 33.5301Z"
            fill="#E96C61" />
        <path
            d="M37.093 38.6535L37.2286 21.5409C27.8336 30.3752 24.8863 33.5159 24.8863 33.5159C24.8863 33.5159 29.113 38.4031 37.093 38.6535Z"
            fill="#C676BD" />
        <path
            d="M49.5474 33.8996L37.5422 21.704C37.1464 34.594 37.2834 38.899 37.2834 38.899C37.2834 38.899 43.728 39.3656 49.5474 33.8996Z"
            fill="#A26ADB" />
        <path
            d="M53.9552 21.5105L36.8474 21.0855C45.5214 30.6285 48.6119 33.6286 48.6119 33.6286C48.6119 33.6286 53.5699 29.4851 53.9552 21.5105Z"
            fill="#56A9EB" />
    </g>
    <circle cx="37.2701" cy="21.8143" r="6.33729" transform="rotate(-180 37.2701 21.8143)" fill="black" />
</svg>