<svg width="1300" height="495" viewBox="0 0 1300 495" fill="none" xmlns="http://www.w3.org/2000/svg">
    <g clip-path="url(#clip0_495_561)">
        <rect width="1300" height="495" fill="white" />
        <circle cx="937" cy="191" r="60" fill="#F4CD58" fill-opacity="0.2" />
        <rect x="915" y="7" width="95" height="72" fill="#E96C61" />
        <rect x="1105" y="458" width="187" height="28" fill="#788FF4" />
        <rect x="1105" y="391" width="92" height="61" fill="#EDD5EB" />
        <rect x="1" y="83" width="736" height="6" fill="#C56BB3" />
        <rect width="378" height="6" transform="matrix(-1 0 0 1 1197 83)" fill="#EDD5EB" />
        <rect x="1202" y="293" width="90" height="159" fill="#A5B5F8" fill-opacity="0.5" />
        <rect x="1100" y="414" width="72" height="182" transform="rotate(90 1100 414)" fill="#78C9B8"
            fill-opacity="0.3" />
        <rect x="1292" y="7" width="72" height="180" transform="rotate(90 1292 7)" fill="#F4CD58" />

        <path
            d="M1202 173C1213.82 173 1225.52 170.672 1236.44 166.149C1247.36 161.626 1257.28 154.997 1265.64 146.64C1274 138.282 1280.63 128.361 1285.15 117.442C1289.67 106.522 1292 94.819 1292 83L1202 83L1202 173Z"
            fill="#78C9B8" />
        <path
            d="M406.5 486C420.159 486 433.258 480.574 442.916 470.916C452.574 461.258 458 448.159 458 434.5C458 420.841 452.574 407.742 442.916 398.084C433.258 388.426 420.159 383 406.5 383L406.5 434.5L406.5 486Z"
            fill="#78C9B8" />
        <path
            d="M95 486C95 474.181 92.6721 462.478 88.1492 451.558C83.6262 440.639 76.9969 430.718 68.6396 422.36C60.2823 414.003 50.3608 407.374 39.4415 402.851C28.5222 398.328 16.819 396 4.99999 396L5 486L95 486Z"
            fill="#4B6AF0" />
        <path
            d="M421 79.5C421 74.7068 420.056 69.9604 418.222 65.5321C416.387 61.1037 413.699 57.0799 410.309 53.6906C406.92 50.3013 402.896 47.6127 398.468 45.7784C394.04 43.9441 389.293 43 384.5 43L384.5 79.5L421 79.5Z"
            fill="#F7DA82" />
        <path
            d="M1292 239C1286.09 239 1280.24 240.254 1274.78 242.692C1269.32 245.129 1264.36 248.702 1260.18 253.205C1256 257.709 1252.69 263.056 1250.43 268.94C1248.16 274.824 1247 281.131 1247 287.5L1292 287.5L1292 239Z"
            fill="#C56BB3" />
        <line x1="106" y1="173.5" x2="-20" y2="173.5" stroke="black" />
        <line x1="22.5" y1="276" x2="22.5" y2="24" stroke="black" />
        <line x1="1300" y1="43.5" x2="1174" y2="43.5" stroke="black" />
        <line x1="1246.5" y1="407" x2="1246.5" y2="187" stroke="black" />
        <path d="M1107 7V79L1015 79L1107 7Z" fill="#4B6AF0" fill-opacity="0.75" />
        <path d="M872 414V486H780L872 414Z" fill="#78C9B8" />
        <path d="M967 407L918 407L918 357L967 407Z" fill="#4B6AF0" fill-opacity="0.75" />
        <path d="M856 43L856 79L819 79L856 43Z" fill="#4B6AF0" fill-opacity="0.75" />
        <path d="M227 437L227 486L177 486L227 437Z" fill="#C56BB3" />
        <path d="M1197 293V386H1107L1197 293Z" fill="#E96C61" />
        <circle cx="1075" cy="382" r="25" fill="#F4CD58" />
        <circle cx="377" cy="353" r="25" fill="#F4CD58" />
        <circle cx="705" cy="462" r="25" fill="#C56BB3" />
        <circle cx="760" cy="462" r="25" fill="#F4CD58" fill-opacity="0.75" />
        <line x1="1300" y1="373.5" x2="1152" y2="373.5" stroke="black" />
        <rect x="381" y="7" width="72" height="270" transform="rotate(90 381 7)" fill="#D7EFEA" />
        <rect x="106" y="7" width="72" height="101" transform="rotate(90 106 7)" fill="#78C9B8" fill-opacity="0.75" />
        <rect x="402" y="437" width="49" height="170" transform="rotate(90 402 437)" fill="#EDD5EB" />
        <rect x="402" y="383" width="49" height="49" transform="rotate(90 402 383)" fill="#D2DAFC" />
        <rect x="910" y="7" width="72" height="49" transform="rotate(90 910 7)" fill="#D2DAFC" />
        <path
            d="M913 414C908.272 414 903.591 414.931 899.223 416.74C894.856 418.55 890.887 421.201 887.544 424.544C884.201 427.887 881.55 431.856 879.74 436.223C877.931 440.591 877 445.272 877 450C877 454.728 877.931 459.409 879.74 463.777C881.55 468.144 884.201 472.113 887.544 475.456C890.887 478.799 894.856 481.45 899.223 483.26C903.591 485.069 908.272 486 913 486L913 450L913 414Z"
            fill="#E96C61" />
        <path
            d="M172 486C172 481.272 171.069 476.591 169.26 472.223C167.45 467.856 164.799 463.887 161.456 460.544C158.113 457.201 154.144 454.55 149.777 452.74C145.409 450.931 140.728 450 136 450C131.272 450 126.591 450.931 122.223 452.74C117.856 454.55 113.887 457.201 110.544 460.544C107.201 463.887 104.55 467.856 102.74 472.223C100.931 476.591 100 481.272 100 486L136 486L172 486Z"
            fill="#F4CD58" />
        <line x1="500" y1="276.5" x2="352" y2="276.5" stroke="black" />
        <line x1="885" y1="24.5" x2="737" y2="24.5" stroke="black" />
        <line x1="877.5" y1="2.18557e-08" x2="877.5" y2="130" stroke="black" />
        <line x1="473.5" y1="248" x2="473.5" y2="495" stroke="black" />
        <line x1="1075" y1="462.5" x2="705" y2="462.5" stroke="black" />
    </g>
    <defs>
        <clipPath id="clip0_495_561">
            <rect width="1300" height="495" fill="white" />
        </clipPath>
    </defs>
</svg>