<svg width="131" height="80" viewBox="0 0 131 80" fill="none" xmlns="http://www.w3.org/2000/svg">
<mask id="mask0_335_334" style="mask-type:alpha" maskUnits="userSpaceOnUse" x="27" y="5" width="34" height="35">
<rect x="60.9688" y="5.65967" width="33.5029" height="33.39" transform="rotate(90 60.9688 5.65967)" fill="#E96C61"/>
</mask>
<g mask="url(#mask0_335_334)">
<ellipse cx="28.5062" cy="5.0421" rx="32.4625" ry="33.506" fill="#E96C61"/>
</g>
<mask id="mask1_335_334" style="mask-type:alpha" maskUnits="userSpaceOnUse" x="66" y="45" width="34" height="35">
<rect x="66.1895" y="79.1519" width="33.5029" height="33.39" transform="rotate(-90 66.1895 79.1519)" fill="#F1D356"/>
</mask>
<g mask="url(#mask1_335_334)">
<ellipse cx="98.6518" cy="79.7694" rx="32.4625" ry="33.506" transform="rotate(-180 98.6518 79.7694)" fill="#F1D356"/>
</g>
<mask id="mask2_335_334" style="mask-type:alpha" maskUnits="userSpaceOnUse" x="66" y="5" width="34" height="35">
<rect x="99.6924" y="39.0503" width="33.5029" height="33.39" transform="rotate(-180 99.6924 39.0503)" fill="#4B6AF0"/>
</mask>
<g mask="url(#mask2_335_334)">
<ellipse cx="100.31" cy="6.58699" rx="32.4625" ry="33.506" transform="rotate(90 100.31 6.58699)" fill="#4B6AF0"/>
</g>
<mask id="mask3_335_334" style="mask-type:alpha" maskUnits="userSpaceOnUse" x="27" y="45" width="35" height="35">
<rect x="27.5789" y="45.6484" width="33.5029" height="33.39" fill="#F3A33C"/>
</mask>
<g mask="url(#mask3_335_334)">
<ellipse cx="26.9615" cy="78.1117" rx="32.4625" ry="33.506" transform="rotate(-90 26.9615 78.1117)" fill="#F3A33C"/>
</g>
<circle cx="63.4316" cy="42.8916" r="15.1684" fill="#EDD5EB"/>
<line x1="131" y1="18.5703" x2="44.1263" y2="18.5703" stroke="black"/>
<line x1="38.6106" y1="30.981" x2="6.86646e-05" y2="30.981" stroke="black"/>
<line x1="110.316" y1="65.4546" x2="63.4315" y2="65.4546" stroke="black"/>
<line x1="60.1736" y1="52.5439" x2="60.1736" y2="0.143944" stroke="black"/>
</svg>
