<svg width="733" height="777" viewBox="0 0 733 777" fill="none" xmlns="http://www.w3.org/2000/svg">
    <g filter="url(#filter0_d_982_293)">
        <mask id="path-1-inside-1_982_293" fill="white">
            <path fill-rule="evenodd" clip-rule="evenodd"
                d="M411.293 192V25.0154C411.293 11.2083 400.1 5.11772e-05 386.293 4.92884e-05L25.9992 0C12.192 -1.88882e-06 0.999163 11.1929 0.999162 25L0.999153 192H0.998047V546C0.998047 559.807 12.1909 571 25.998 571H151.321V698.457C151.321 734.908 180.87 764.457 217.321 764.457H518.878C532.686 764.457 543.878 753.264 543.878 739.457V571H695.998C709.805 571 720.998 559.807 720.998 546V217C720.998 203.193 709.805 192 695.998 192H411.293Z" />
        </mask>
        <path fill-rule="evenodd" clip-rule="evenodd"
            d="M411.293 192V25.0154C411.293 11.2083 400.1 5.11772e-05 386.293 4.92884e-05L25.9992 0C12.192 -1.88882e-06 0.999163 11.1929 0.999162 25L0.999153 192H0.998047V546C0.998047 559.807 12.1909 571 25.998 571H151.321V698.457C151.321 734.908 180.87 764.457 217.321 764.457H518.878C532.686 764.457 543.878 753.264 543.878 739.457V571H695.998C709.805 571 720.998 559.807 720.998 546V217C720.998 203.193 709.805 192 695.998 192H411.293Z"
            fill="#E9F6F4" />
        <path
            d="M411.293 192H407.293V196H411.293V192ZM386.293 4.92884e-05L386.293 4.00005L386.293 4.92884e-05ZM25.9992 0L25.9992 -4L25.9992 0ZM0.999162 25L4.99916 25L0.999162 25ZM0.999153 192V196H4.99915L4.99915 192L0.999153 192ZM0.998047 192V188H-3.00195V192H0.998047ZM151.321 571H155.321V567H151.321V571ZM543.878 571V567H539.878V571H543.878ZM415.293 192V25.0154H407.293V192H415.293ZM415.293 25.0154C415.293 9.00235 402.313 -3.99995 386.293 -3.99995L386.293 4.00005C397.888 4.00005 407.293 13.4142 407.293 25.0154H415.293ZM386.293 -3.99995L25.9992 -4L25.9992 4L386.293 4.00005L386.293 -3.99995ZM25.9992 -4C9.98291 -4 -3.00084 8.98372 -3.00084 25L4.99916 25C4.99916 13.402 14.4012 4 25.9992 4L25.9992 -4ZM-3.00084 25L-3.00085 192L4.99915 192L4.99916 25L-3.00084 25ZM0.998047 196H0.999153V188H0.998047V196ZM4.99805 546V192H-3.00195V546H4.99805ZM25.998 567C14.4001 567 4.99805 557.598 4.99805 546H-3.00195C-3.00195 562.016 9.98178 575 25.998 575V567ZM151.321 567H25.998V575H151.321V567ZM147.321 571V698.457H155.321V571H147.321ZM147.321 698.457C147.321 737.117 178.661 768.457 217.321 768.457V760.457C183.08 760.457 155.321 732.699 155.321 698.457H147.321ZM217.321 768.457H518.878V760.457H217.321V768.457ZM518.878 768.457C534.895 768.457 547.878 755.473 547.878 739.457H539.878C539.878 751.055 530.476 760.457 518.878 760.457V768.457ZM547.878 739.457V571H539.878V739.457H547.878ZM695.998 567H543.878V575H695.998V567ZM716.998 546C716.998 557.598 707.596 567 695.998 567V575C712.014 575 724.998 562.016 724.998 546H716.998ZM716.998 217V546H724.998V217H716.998ZM695.998 196C707.596 196 716.998 205.402 716.998 217H724.998C724.998 200.984 712.014 188 695.998 188V196ZM411.293 196H695.998V188H411.293V196Z"
            fill="#78C9B8" mask="url(#path-1-inside-1_982_293)" />
    </g>
    <path d="M717 415.013H507.998V594.296H262.998V415.676C262.998 415.676 254.804 415.676 205.498 415.676V124H4.99805"
        stroke="#78C9B8" stroke-width="36" stroke-linejoin="round" />
    <path d="M717 415.013H507.998V594.296H262.998V415.676C262.998 415.676 254.804 415.676 205.498 415.676V124H4.99805"
        stroke="white" stroke-width="35" stroke-linejoin="round" />
    <g style="mix-blend-mode:multiply">
        <rect x="129" y="73" width="58" height="27" rx="13.5" fill="#E9F6F4" />
    </g>
    <g style="mix-blend-mode:multiply">
        <rect x="90" y="195" width="64" height="27" rx="13.5" fill="#E9F6F4" />
    </g>
    <path d="M165.073 48.9666H172.466L174.93 86.7547H163.43L165.073 48.9666Z" fill="#67441B" />
    <circle cx="168.769" cy="33.7692" r="21.7692" fill="#78C9B8" />
    <g style="mix-blend-mode:multiply">
        <path fill-rule="evenodd" clip-rule="evenodd"
            d="M168.77 55.5385C180.792 55.5385 190.539 45.792 190.539 33.7692C190.539 21.7464 180.792 12 168.77 12V55.5385Z"
            fill="#78C9B8" />
    </g>
    <g style="mix-blend-mode:multiply">
        <rect x="256" y="342" width="58" height="27" rx="13.5" fill="#E9F6F4" />
    </g>
    <path d="M292.073 317.967H299.466L301.93 355.755H290.43L292.073 317.967Z" fill="#67441B" />
    <circle cx="295.769" cy="302.769" r="21.7692" fill="#78C9B8" />
    <g style="mix-blend-mode:multiply">
        <path fill-rule="evenodd" clip-rule="evenodd"
            d="M295.77 324.538C307.792 324.538 317.539 314.792 317.539 302.769C317.539 290.746 307.792 281 295.77 281V324.538Z"
            fill="#78C9B8" />
    </g>
    <g style="mix-blend-mode:multiply">
        <rect x="39" y="516" width="58" height="27" rx="13.5" fill="#E9F6F4" />
    </g>
    <path d="M75.0726 491.967H82.466L84.9304 529.755H73.4297L75.0726 491.967Z" fill="#67441B" />
    <circle cx="78.7692" cy="476.769" r="21.7692" fill="#78C9B8" />
    <g style="mix-blend-mode:multiply">
        <path fill-rule="evenodd" clip-rule="evenodd"
            d="M78.7695 498.538C90.7923 498.538 100.539 488.792 100.539 476.769C100.539 464.746 90.7923 455 78.7695 455V498.538Z"
            fill="#78C9B8" />
    </g>
    <g style="mix-blend-mode:multiply">
        <rect x="431" y="538" width="58" height="27" rx="13.5" fill="#E9F6F4" />
    </g>
    <path d="M467.073 513.967H474.466L476.93 551.755H465.43L467.073 513.967Z" fill="#67441B" />
    <circle cx="470.769" cy="498.769" r="21.7692" fill="#78C9B8" />
    <g style="mix-blend-mode:multiply">
        <path fill-rule="evenodd" clip-rule="evenodd"
            d="M470.77 520.538C482.792 520.538 492.539 510.792 492.539 498.769C492.539 486.746 482.792 477 470.77 477V520.538Z"
            fill="#78C9B8" />
    </g>
    <g style="mix-blend-mode:multiply">
        <rect x="273" y="719" width="58" height="27" rx="13.5" fill="#E9F6F4" />
    </g>
    <path d="M309.073 694.967H316.466L318.93 732.755H307.43L309.073 694.967Z" fill="#67441B" />
    <circle cx="312.769" cy="679.769" r="21.7692" fill="#78C9B8" />
    <g style="mix-blend-mode:multiply">
        <path fill-rule="evenodd" clip-rule="evenodd"
            d="M312.77 701.538C324.792 701.538 334.539 691.792 334.539 679.769C334.539 667.746 324.792 658 312.77 658V701.538Z"
            fill="#78C9B8" />
    </g>
    <path d="M460.051 313L518.67 381.216H407.818L460.051 313Z" fill="#67441B" />
    <path
        d="M451.487 345.752L446.189 331.12L460.046 313L480.88 337.354L470.802 344.072L460.046 333.995L451.487 345.752Z"
        fill="white" />
    <g style="mix-blend-mode:multiply" opacity="0.3">
        <path fill-rule="evenodd" clip-rule="evenodd"
            d="M459.883 313.001L459.883 313.001L518.668 381.216L459.883 381.216V313.001ZM457.136 381.216L399.999 381.216L400 381.216H457.136Z"
            fill="#67441B" />
    </g>
    <path d="M499.551 332L542.066 381.476H461.668L499.551 332Z" fill="#67441B" />
    <path
        d="M493.34 355.754L489.498 345.142L499.548 332L514.658 349.663L507.349 354.536L499.548 347.227L493.34 355.754Z"
        fill="white" />
    <g style="mix-blend-mode:multiply" opacity="0.3">
        <path fill-rule="evenodd" clip-rule="evenodd"
            d="M499.432 332.001L542.066 381.475L499.432 381.475V332.001ZM478.068 381.475L455.999 381.475L455.999 381.475H478.068Z"
            fill="#67441B" />
    </g>
    <path d="M604.551 440L647.066 489.476H566.668L604.551 440Z" fill="#67441B" />
    <path
        d="M598.34 463.754L594.498 453.142L604.548 440L619.658 457.663L612.349 462.536L604.548 455.227L598.34 463.754Z"
        fill="white" />
    <g style="mix-blend-mode:multiply" opacity="0.3">
        <path fill-rule="evenodd" clip-rule="evenodd"
            d="M604.432 440.001L647.066 489.475L604.432 489.475V440.001ZM583.068 489.475L560.999 489.475L560.999 489.475H583.068Z"
            fill="#67441B" />
    </g>
    <g style="mix-blend-mode:multiply">
        <rect x="327" y="351" width="58" height="24" rx="12" fill="#E9F6F4" />
    </g>
    <path
        d="M323.192 321.539H325.731V323.654H377.769V355.808H375.231V360.885H372.692V348.615H370.154V343.75H345.615V346.077H343.077V355.808H340.538V360.885H338V348.615H335.673V341.423H330.808V336.346H328.269V333.808H323.192V336.346H318.115V333.808H316V328.731H318.115V326.615H321.077V323.654H323.192V321.539Z"
        fill="#E3D1CF" />
    <path d="M330.808 319H335.462V321.538H332.923V323.654H328.27V321.538H330.808V319Z" fill="#CDBAB3" />
    <path
        d="M362.962 343.327H357.885V346.077H360.423V348.615H362.539V346.077H365.5V348.615H367.616V346.077H370.154V341.211H362.962V343.327Z"
        fill="#F97D73" />
    <path d="M345.615 343.539H350.692V346.077H347.73V358.346H345.615V353.692H343.076V346.077H345.615V343.539Z"
        fill="#CDBAB3" />
    <path d="M370.153 346.077H367.615V358.558H370.153V351.154H372.692V348.615H370.153V346.077Z" fill="#CDBAB3" />
    <path d="M323.191 328.943V326.404H325.73V328.943H323.191Z" fill="#453536" />
    <path d="M335.885 360.884H340.539V363H335.885V360.884Z" fill="#453536" />
    <path d="M343.077 358.346H347.731V360.461H343.077V358.346Z" fill="#453536" />
    <path d="M365.5 358.557H370.154V360.673H365.5V358.557Z" fill="#453536" />
    <path d="M370.577 360.884H375.231V363H370.577V360.884Z" fill="#453536" />
    <path d="M328.269 319H325.73V323.654H328.269V319Z" fill="#E28F2F" />
    <path
        d="M338 326.193V323.654H350.48V326.193H347.942V328.731H345.615V331.269H342.865V333.808H340.538V336.346H342.653V341H338V346.077H333.346V341.423H335.673V326.193H338Z"
        fill="#453536" />
    <path
        d="M345.615 341V336.346H348.153V333.808H352.807V336.346H357.884V333.808H360.423V343.327H357.884V346.077H350.692V343.539H348.153V341H345.615Z"
        fill="#453536" />
    <path
        d="M368.038 323.654H377.769V326.404H380.096V333.808H382.423V343.539H380.307V335.923H377.769V336.346V338.673H375.23V336.346H372.692V338.673H370.153V336.346H367.826V333.808H365.5V328.731H368.038V323.654Z"
        fill="#453536" />
    <path
        d="M338 326.193V323.654H350.48V326.193H347.942V328.731H345.615V331.269H342.865V333.808H340.538V336.346H342.653V341H338V346.077H333.346V341.423H335.673V326.193H338Z"
        fill="#453536" />
    <path
        d="M345.615 341V336.346H348.153V333.808H352.807V336.346H357.884V333.808H360.423V343.327H357.884V346.077H350.692V343.539H348.153V341H345.615Z"
        fill="#453536" />
    <path
        d="M368.038 323.654H377.769V326.404H380.096V333.808H382.423V343.539H380.307V335.923H377.769V336.346V338.673H375.23V336.346H372.692V338.673H370.153V336.346H367.826V333.808H365.5V328.731H368.038V323.654Z"
        fill="#453536" />
    <path
        d="M156.745 167.539H154.185V169.654H101.694V201.808H104.255V206.885H106.815V194.615H109.376V189.75H134.127V192.077H136.688V201.808H139.248V206.885H141.809V194.615H144.156V187.423H149.064V182.346H151.624V179.808H156.745V182.346H161.866V179.808H164V174.731H161.866V172.615H158.879V169.654H156.745V167.539Z"
        fill="#E3D1CF" />
    <path d="M149.063 165H144.368V167.538H146.929V169.654H151.623V167.538H149.063V165Z" fill="#CDBAB3" />
    <path
        d="M116.631 189.327H121.752V192.077H119.191V194.615H117.058V192.077H114.07V194.615H111.937V192.077H109.376V187.211H116.631V189.327Z"
        fill="#F97D73" />
    <path d="M134.129 189.539H129.008V192.077H131.995V204.346H134.129V199.692H136.689V192.077H134.129V189.539Z"
        fill="#CDBAB3" />
    <path d="M109.377 192.077H111.938V204.558H109.377V197.154H106.817V194.615H109.377V192.077Z" fill="#CDBAB3" />
    <path d="M156.746 174.943V172.404H154.186V174.943H156.746Z" fill="#453536" />
    <path d="M143.943 206.884H139.249V209H143.943V206.884Z" fill="#453536" />
    <path d="M136.689 204.346H131.994V206.461H136.689V204.346Z" fill="#453536" />
    <path d="M114.071 204.557H109.376V206.673H114.071V204.557Z" fill="#453536" />
    <path d="M108.95 206.884H104.255V209H108.95V206.884Z" fill="#453536" />
    <path d="M151.625 165H154.186V169.654H151.625V165Z" fill="#E28F2F" />
    <path
        d="M141.81 172.193V169.654H129.22V172.193H131.781V174.731H134.128V177.269H136.902V179.808H139.249V182.346H137.115V187H141.81V192.077H146.504V187.423H144.157V172.193H141.81Z"
        fill="#453536" />
    <path
        d="M134.128 187V182.346H131.568V179.808H126.873V182.346H121.752V179.808H119.192V189.327H121.752V192.077H129.007V189.539H131.568V187H134.128Z"
        fill="#453536" />
    <path
        d="M111.51 169.654H101.695V172.404H99.3479V179.808H97.0007V189.539H99.1345V181.923H101.695V182.346V184.673H104.256V182.346H106.816V184.673H109.377V182.346H111.724V179.808H114.071V174.731H111.51V169.654Z"
        fill="#453536" />
    <path
        d="M141.81 172.193V169.654H129.22V172.193H131.781V174.731H134.128V177.269H136.902V179.808H139.249V182.346H137.115V187H141.81V192.077H146.504V187.423H144.157V172.193H141.81Z"
        fill="#453536" />
    <path
        d="M134.128 187V182.346H131.568V179.808H126.873V182.346H121.752V179.808H119.192V189.327H121.752V192.077H129.007V189.539H131.568V187H134.128Z"
        fill="#453536" />
    <path
        d="M111.51 169.654H101.695V172.404H99.3479V179.808H97.0007V189.539H99.1345V181.923H101.695V182.346V184.673H104.256V182.346H106.816V184.673H109.377V182.346H111.724V179.808H114.071V174.731H111.51V169.654Z"
        fill="#453536" />
    <g style="mix-blend-mode:multiply">
        <rect x="468.096" y="715" width="58.5038" height="24" rx="12" fill="#E9F6F4" />
    </g>
    <path
        d="M464.255 685.539H466.815V687.654H519.306V719.808H516.745V724.885H514.185V712.615H511.624V707.75H486.873V710.077H484.312V719.808H481.752V724.885H479.191V712.615H476.844V705.423H471.936V700.346H469.376V697.808H464.255V700.346H459.134V697.808H457V692.731H459.134V690.615H462.121V687.654H464.255V685.539Z"
        fill="#E3D1CF" />
    <path d="M471.937 683H476.632V685.538H474.071V687.654H469.377V685.538H471.937V683Z" fill="#CDBAB3" />
    <path
        d="M504.369 707.327H499.248V710.077H501.809V712.615H503.942V710.077H506.93V712.615H509.063V710.077H511.624V705.211H504.369V707.327Z"
        fill="#F97D73" />
    <path d="M486.871 707.539H491.992V710.077H489.005V722.346H486.871V717.692H484.311V710.077H486.871V707.539Z"
        fill="#CDBAB3" />
    <path d="M511.623 710.077H509.062V722.558H511.623V715.154H514.183V712.615H511.623V710.077Z" fill="#CDBAB3" />
    <path d="M464.254 692.942V690.404H466.814V692.942H464.254Z" fill="#453536" />
    <path d="M477.057 724.885H481.751V727H477.057V724.885Z" fill="#453536" />
    <path d="M484.311 722.346H489.006V724.462H484.311V722.346Z" fill="#453536" />
    <path d="M506.929 722.558H511.624V724.673H506.929V722.558Z" fill="#453536" />
    <path d="M512.05 724.885H516.745V727H512.05V724.885Z" fill="#453536" />
    <path d="M469.375 683H466.814V687.654H469.375V683Z" fill="#E28F2F" />
    <path
        d="M479.19 690.192V687.654H491.78V690.192H489.219V692.731H486.872V695.269H484.098V697.808H481.751V700.346H483.885V705H479.19V710.077H474.496V705.423H476.843V690.192H479.19Z"
        fill="#453536" />
    <path
        d="M486.872 705V700.346H489.432V697.808H494.127V700.346H499.248V697.808H501.808V707.327H499.248V710.077H491.993V707.538H489.432V705H486.872Z"
        fill="#453536" />
    <path
        d="M509.49 687.654H519.305V690.404H521.652V697.808H523.999V707.538H521.866V699.923H519.305V700.346V702.673H516.744V700.346H514.184V702.673H511.623V700.346H509.276V697.808H506.929V692.731H509.49V687.654Z"
        fill="#453536" />
    <path
        d="M479.19 690.193V687.654H491.78V690.193H489.219V692.731H486.872V695.27H484.098V697.808H481.751V700.347H483.885V705H479.19V710.077H474.496V705.424H476.843V690.193H479.19Z"
        fill="#453536" />
    <path
        d="M486.872 705V700.347H489.432V697.808H494.127V700.347H499.248V697.808H501.808V707.327H499.248V710.077H491.993V707.539H489.432V705H486.872Z"
        fill="#453536" />
    <path
        d="M509.49 687.654H519.305V690.404H521.652V697.808H523.999V707.539H521.866V699.924H519.305V700.347V702.674H516.744V700.347H514.184V702.674H511.623V700.347H509.276V697.808H506.929V692.731H509.49V687.654Z"
        fill="#453536" />
    <g style="mix-blend-mode:multiply">
        <rect width="57.9973" height="24" rx="12" transform="matrix(-1 0 0 1 190.42 499)" fill="#E9F6F4" />
    </g>
    <path
        d="M194.228 469.539H191.69V471.654H139.654V503.808H142.192V508.885H144.73V496.615H147.269V491.75H171.806V494.077H174.344V503.808H176.883V508.885H179.421V496.615H181.748V489.423H186.613V484.346H189.151V481.808H194.228V484.346H199.305V481.808H201.42V476.731H199.305V474.615H196.343V471.654H194.228V469.539Z"
        fill="#E3D1CF" />
    <path d="M186.612 467H181.958V469.538H184.497V471.654H189.15V469.538H186.612V467Z" fill="#CDBAB3" />
    <path
        d="M154.46 491.327H159.537V494.077H156.999V496.615H154.883V494.077H151.922V496.615H149.807V494.077H147.268V489.211H154.46V491.327Z"
        fill="#F97D73" />
    <path d="M171.807 491.539H166.731V494.077H169.692V506.346H171.807V501.692H174.346V494.077H171.807V491.539Z"
        fill="#CDBAB3" />
    <path d="M147.27 494.077H149.808V506.558H147.27V499.154H144.732V496.615H147.27V494.077Z" fill="#CDBAB3" />
    <path d="M194.229 476.942V474.404H191.69V476.942H194.229Z" fill="#453536" />
    <path d="M181.537 508.885H176.883V511H181.537V508.885Z" fill="#453536" />
    <path d="M174.345 506.346H169.692V508.462H174.345V506.346Z" fill="#453536" />
    <path d="M151.923 506.558H147.269V508.673H151.923V506.558Z" fill="#453536" />
    <path d="M146.846 508.885H142.193V511H146.846V508.885Z" fill="#453536" />
    <path d="M189.151 467H191.689V471.654H189.151V467Z" fill="#E28F2F" />
    <path
        d="M179.421 474.192V471.654H166.94V474.192H169.479V476.731H171.806V479.269H174.555V481.808H176.882V484.346H174.767V489H179.421V494.077H184.074V489.423H181.747V474.192H179.421Z"
        fill="#453536" />
    <path
        d="M171.806 489V484.346H169.267V481.808H164.614V484.346H159.537V481.808H156.999V491.327H159.537V494.077H166.729V491.538H169.267V489H171.806Z"
        fill="#453536" />
    <path
        d="M149.384 471.654H139.653V474.404H137.326V481.808H135V491.538H137.115V483.923H139.653V484.346V486.673H142.192V484.346H144.73V486.673H147.268V484.346H149.595V481.808H151.922V476.731H149.384V471.654Z"
        fill="#453536" />
    <path
        d="M179.421 474.193V471.654H166.94V474.193H169.479V476.731H171.806V479.27H174.555V481.808H176.882V484.347H174.767V489H179.421V494.077H184.074V489.424H181.747V474.193H179.421Z"
        fill="#453536" />
    <path
        d="M171.806 489V484.347H169.267V481.808H164.614V484.347H159.537V481.808H156.999V491.327H159.537V494.077H166.729V491.539H169.267V489H171.806Z"
        fill="#453536" />
    <path
        d="M149.384 471.654H139.653V474.404H137.326V481.808H135V491.539H137.115V483.924H139.653V484.347V486.674H142.192V484.347H144.73V486.674H147.268V484.347H149.595V481.808H151.922V476.731H149.384V471.654Z"
        fill="#453536" />
    <defs>
        <filter id="filter0_d_982_293" x="0.998047" y="0" width="732" height="776.457" filterUnits="userSpaceOnUse"
            color-interpolation-filters="sRGB">
            <feFlood flood-opacity="0" result="BackgroundImageFix" />
            <feColorMatrix in="SourceAlpha" type="matrix" values="0 0 0 0 0 0 0 0 0 0 0 0 0 0 0 0 0 0 127 0"
                result="hardAlpha" />
            <feOffset dx="12" dy="12" />
            <feComposite in2="hardAlpha" operator="out" />
            <feColorMatrix type="matrix" values="0 0 0 0 0.164706 0 0 0 0 0.517647 0 0 0 0 0.443137 0 0 0 1 0" />
            <feBlend mode="normal" in2="BackgroundImageFix" result="effect1_dropShadow_982_293" />
            <feBlend mode="normal" in="SourceGraphic" in2="effect1_dropShadow_982_293" result="shape" />
        </filter>
    </defs>
</svg>