<svg width="323" height="728" viewBox="0 0 323 728" fill="none" xmlns="http://www.w3.org/2000/svg">
    <g filter="url(#filter0_d_999_148)">
        <mask id="path-1-inside-1_999_148" fill="white">
            <path fill-rule="evenodd" clip-rule="evenodd"
                d="M4.56453e-05 50L4.47523e-05 20C4.44235e-05 8.95431 8.95435 3.23996e-06 20 2.53099e-06L75 0C88.8072 0 100 11.1929 100 25V50L180.242 50C193.915 50 205 60.9793 205 74.5157V150L255.089 150C268.847 150 280 161.193 280 175V280H290C303.807 280 315 291.5 315 305.685V404.315C315 418.5 303.807 430 290 430H280L280 520V600V697.778C280 710.051 268.807 720 255 720H96C82.1929 720 71 710.051 71 697.778V600H55C41.1929 600 30 588.803 30 574.996L30 520H25C11.1929 520 -1.53838e-06 508.807 0 495L7.35367e-06 429L4.8381e-05 280L2.27113e-05 150L4.56453e-05 50Z" />
        </mask>
        <path fill-rule="evenodd" clip-rule="evenodd"
            d="M4.56453e-05 50L4.47523e-05 20C4.44235e-05 8.95431 8.95435 3.23996e-06 20 2.53099e-06L75 0C88.8072 0 100 11.1929 100 25V50L180.242 50C193.915 50 205 60.9793 205 74.5157V150L255.089 150C268.847 150 280 161.193 280 175V280H290C303.807 280 315 291.5 315 305.685V404.315C315 418.5 303.807 430 290 430H280L280 520V600V697.778C280 710.051 268.807 720 255 720H96C82.1929 720 71 710.051 71 697.778V600H55C41.1929 600 30 588.803 30 574.996L30 520H25C11.1929 520 -1.53838e-06 508.807 0 495L7.35367e-06 429L4.8381e-05 280L2.27113e-05 150L4.56453e-05 50Z"
            fill="#E9F6F4" />
        <path
            d="M4.47523e-05 20L4.00004 20L4.47523e-05 20ZM4.56453e-05 50L4.00005 50L4.00005 50L4.56453e-05 50ZM20 2.53099e-06L20 -4L20 2.53099e-06ZM75 0L75 -4L75 -4L75 0ZM100 50H96V54L100 54L100 50ZM180.242 50L180.242 54L180.242 54L180.242 50ZM205 150H201V154L205 154L205 150ZM255.089 150L255.089 154H255.089V150ZM280 280H276V284H280V280ZM280 430V426H276L276 430L280 430ZM280 520L284 520L284 520L280 520ZM71 600H75V596H71V600ZM30 574.996L26 574.996V574.996H30ZM30 520L34 520L34 516H30V520ZM0 495L4 495L0 495ZM7.35367e-06 429L-3.99999 429L-3.99999 429L7.35367e-06 429ZM4.8381e-05 280L4.00005 280L4.00005 280L4.8381e-05 280ZM2.27113e-05 150L-3.99998 150L-3.99998 150L2.27113e-05 150ZM-3.99996 20L-3.99995 50L4.00005 50L4.00004 20L-3.99996 20ZM20 -4C6.74521 -4 -3.99996 6.74517 -3.99996 20L4.00004 20C4.00004 11.1634 11.1635 4 20 4L20 -4ZM75 -4L20 -4L20 4L75 4L75 -4ZM104 25C104 8.98374 91.0163 -4 75 -4V4C86.598 4 96 13.402 96 25H104ZM104 50V25H96V50H104ZM180.242 46L100 46L100 54L180.242 54L180.242 46ZM209 74.5157C209 58.7334 196.088 46 180.242 46L180.242 54C191.743 54 201 63.2252 201 74.5157H209ZM209 150V74.5157H201V150H209ZM255.089 146L205 146L205 154L255.089 154L255.089 146ZM284 175C284 158.997 271.07 146 255.089 146V154C266.624 154 276 163.389 276 175H284ZM284 280V175H276V280H284ZM290 276H280V284H290V276ZM319 305.685C319 289.393 306.118 276 290 276V284C301.497 284 311 293.606 311 305.685H319ZM319 404.315V305.685H311V404.315H319ZM290 434C306.118 434 319 420.607 319 404.315H311C311 416.394 301.497 426 290 426V434ZM280 434H290V426H280V434ZM276 430L276 520L284 520L284 430L276 430ZM284 600V520H276V600H284ZM284 697.778V600H276V697.778H284ZM255 724C270.56 724 284 712.69 284 697.778H276C276 707.412 267.054 716 255 716V724ZM96 724H255V716H96V724ZM67 697.778C67 712.69 80.4397 724 96 724V716C83.9461 716 75 707.412 75 697.778H67ZM67 600V697.778H75V600H67ZM55 604H71V596H55V604ZM26 574.996C26 591.011 38.9829 604 55 604V596C43.4029 596 34 586.595 34 574.996H26ZM26 520L26 574.996L34 574.996L34 520L26 520ZM30 516H25V524H30V516ZM25 516C13.402 516 4 506.598 4 495L-4 495C-4 511.016 8.98374 524 25 524V516ZM4 495L4.00001 429L-3.99999 429L-4 495L4 495ZM-3.99995 280L-3.99999 429L4.00001 429L4.00005 280L-3.99995 280ZM-3.99998 150L-3.99995 280L4.00005 280L4.00002 150L-3.99998 150ZM-3.99995 50L-3.99998 150L4.00002 150L4.00005 50L-3.99995 50Z"
            fill="#78C9B8" mask="url(#path-1-inside-1_999_148)" />
    </g>
    <path
        d="M221.999 719.5L222 485.085L92.9995 485.085L92.9995 455.085L49.9995 455.085L49.9995 338.148L220.766 338.148C220.766 311.321 220.766 226.493 220.766 199.665L69.5225 199.665L69.5225 3"
        stroke="#78C9B8" stroke-width="18" stroke-linejoin="round" />
    <path
        d="M222 716L222 485.084L92.9994 485.084L92.9994 455.084L49.9995 455.084L49.9995 338.148L220.766 338.148C220.766 311.321 220.766 226.493 220.766 199.665L69.5225 199.665L69.5225 4"
        stroke="white" stroke-width="17" stroke-linejoin="round" />
    <path d="M107.051 484.952L165.67 553.168H54.8184L107.051 484.952Z" fill="#67441B" />
    <path
        d="M98.4883 517.704L93.1904 503.072L107.047 484.952L127.881 509.306L117.803 516.024L107.047 505.947L98.4883 517.704Z"
        fill="white" />
    <g style="mix-blend-mode:multiply" opacity="0.3">
        <path fill-rule="evenodd" clip-rule="evenodd"
            d="M106.884 484.953L106.884 484.953L165.669 553.168L106.884 553.168V484.953ZM101.94 553.168L47.0004 553.168L47.0006 553.168H101.94Z"
            fill="#67441B" />
    </g>
    <path d="M162.552 503.952L205.067 553.428H124.669L162.552 503.952Z" fill="#67441B" />
    <path
        d="M156.341 527.706L152.499 517.094L162.549 503.952L177.659 521.615L170.35 526.488L162.549 519.179L156.341 527.706Z"
        fill="white" />
    <g style="mix-blend-mode:multiply" opacity="0.3">
        <path fill-rule="evenodd" clip-rule="evenodd"
            d="M162.433 503.953L205.067 553.427L162.433 553.427V503.953ZM141.069 553.427L119 553.427L119 553.427H141.069Z"
            fill="#67441B" />
    </g>
    <path d="M254.084 529.952L273.689 552.767H236.614L254.084 529.952Z" fill="#67441B" />
    <path
        d="M251.22 540.906L249.448 536.012L254.083 529.952L261.051 538.097L257.68 540.344L254.083 536.974L251.22 540.906Z"
        fill="white" />
    <g style="mix-blend-mode:multiply" opacity="0.3">
        <path fill-rule="evenodd" clip-rule="evenodd"
            d="M254.029 529.952L273.689 552.767L254.029 552.767V529.952ZM245.025 552.767L234 552.767L234 552.767H245.025Z"
            fill="#67441B" />
    </g>
    <g style="mix-blend-mode:multiply">
        <rect x="81.25" y="424" width="43.498" height="18" rx="9" fill="#E9F6F4" />
    </g>
    <path
        d="M78.394 401.904H80.2977V403.49H119.325V427.606H117.421V431.413H115.517V422.212H113.614V418.562H95.2105V420.308H93.3068V427.606H91.403V431.413H89.4992V422.212H87.7541V416.817H84.1053V413.01H82.2015V411.106H78.394V413.01H74.5865V411.106H73V407.298H74.5865V405.712H76.8075V403.49H78.394V401.904Z"
        fill="#E3D1CF" />
    <path d="M84.1059 400H87.5961V401.904H85.6924V403.49H82.2021V401.904H84.1059V400Z" fill="#CDBAB3" />
    <path
        d="M108.22 418.245H104.412V420.308H106.316V422.212H107.902V420.308H110.123V422.212H111.71V420.308H113.614V416.659H108.22V418.245Z"
        fill="#F97D73" />
    <path d="M95.2104 418.404H99.0179V420.308H96.7969V429.51H95.2104V426.019H93.3066V420.308H95.2104V418.404Z"
        fill="#CDBAB3" />
    <path d="M113.613 420.308H111.71V429.668H113.613V424.115H115.517V422.212H113.613V420.308Z" fill="#CDBAB3" />
    <path d="M78.3936 407.457V405.553H80.2973V407.457H78.3936Z" fill="#453536" />
    <path d="M87.9121 431.413H91.4023V433H87.9121V431.413Z" fill="#453536" />
    <path d="M93.3061 429.51H96.7963V431.096H93.3061V429.51Z" fill="#453536" />
    <path d="M110.123 429.668H113.613V431.255H110.123V429.668Z" fill="#453536" />
    <path d="M113.93 431.413H117.42V433H113.93V431.413Z" fill="#453536" />
    <path d="M82.2006 400H80.2969V403.49H82.2006V400Z" fill="#E28F2F" />
    <path
        d="M89.499 405.394V403.49H98.8592V405.394H96.9554V407.298H95.2103V409.202H93.1479V411.106H91.4028V413.01H92.9892V416.5H89.499V420.308H86.0088V416.817H87.7539V405.394H89.499Z"
        fill="#453536" />
    <path
        d="M95.2103 416.5V413.01H97.114V411.106H100.604V413.01H104.412V411.106H106.316V418.245H104.412V420.308H99.0178V418.404H97.114V416.5H95.2103Z"
        fill="#453536" />
    <path
        d="M112.027 403.49H119.325V405.553H121.07V411.106H122.815V418.404H121.228V412.692H119.325V413.01V414.755H117.421V413.01H115.517V414.755H113.613V413.01H111.868V411.106H110.123V407.298H112.027V403.49Z"
        fill="#453536" />
    <path
        d="M89.499 405.394V403.49H98.8592V405.394H96.9554V407.298H95.2103V409.202H93.1479V411.106H91.4028V413.01H92.9892V416.5H89.499V420.308H86.0088V416.817H87.7539V405.394H89.499Z"
        fill="#453536" />
    <path
        d="M95.2103 416.5V413.01H97.114V411.106H100.604V413.01H104.412V411.106H106.316V418.245H104.412V420.308H99.0178V418.404H97.114V416.5H95.2103Z"
        fill="#453536" />
    <path
        d="M112.027 403.49H119.325V405.553H121.07V411.106H122.815V418.404H121.228V412.692H119.325V413.01V414.755H117.421V413.01H115.517V414.755H113.613V413.01H111.868V411.106H110.123V407.298H112.027V403.49Z"
        fill="#453536" />
    <g style="mix-blend-mode:multiply">
        <rect width="43.498" height="18" rx="9" transform="matrix(-1 0 0 1 64.5654 314)" fill="#E9F6F4" />
    </g>
    <path
        d="M67.4214 291.904H65.5177V293.49H26.4907V317.606H28.3944V321.413H30.2982V312.212H32.2019V308.562H50.6049V310.308H52.5087V317.606H54.4124V321.413H56.3162V312.212H58.0613V306.817H61.7102V303.01H63.6139V301.106H67.4214V303.01H71.229V301.106H72.8154V297.298H71.229V295.712H69.0079V293.49H67.4214V291.904Z"
        fill="#E3D1CF" />
    <path d="M61.7095 290H58.2193V291.904H60.1231V293.49H63.6133V291.904H61.7095V290Z" fill="#CDBAB3" />
    <path
        d="M37.5958 308.245H41.4033V310.308H39.4996V312.212H37.9131V310.308H35.692V312.212H34.1056V310.308H32.2018V306.659H37.5958V308.245Z"
        fill="#F97D73" />
    <path d="M50.605 308.404H46.7975V310.308H49.0186V319.51H50.605V316.019H52.5088V310.308H50.605V308.404Z"
        fill="#CDBAB3" />
    <path d="M32.202 310.308H34.1058V319.668H32.202V314.115H30.2983V312.212H32.202V310.308Z" fill="#CDBAB3" />
    <path d="M67.4219 297.457V295.553H65.5181V297.457H67.4219Z" fill="#453536" />
    <path d="M57.9033 321.413H54.4131V323H57.9033V321.413Z" fill="#453536" />
    <path d="M52.5093 319.51H49.0191V321.096H52.5093V319.51Z" fill="#453536" />
    <path d="M35.6928 319.668H32.2026V321.255H35.6928V319.668Z" fill="#453536" />
    <path d="M31.8853 321.413H28.3951V323H31.8853V321.413Z" fill="#453536" />
    <path d="M63.6148 290H65.5186V293.49H63.6148V290Z" fill="#E28F2F" />
    <path
        d="M56.3164 295.394V293.49H46.9563V295.394H48.86V297.298H50.6051V299.202H52.6675V301.106H54.4127V303.01H52.8262V306.5H56.3164V310.308H59.8066V306.817H58.0615V295.394H56.3164Z"
        fill="#453536" />
    <path
        d="M50.6051 306.5V303.01H48.7014V301.106H45.2112V303.01H41.4036V301.106H39.4999V308.245H41.4036V310.308H46.7976V308.404H48.7014V306.5H50.6051Z"
        fill="#453536" />
    <path
        d="M33.7886 293.49H26.4909V295.553H24.7458V301.106H23.0007V308.404H24.5871V302.692H26.4909V303.01V304.755H28.3946V303.01H30.2984V304.755H32.2022V303.01H33.9473V301.106H35.6924V297.298H33.7886V293.49Z"
        fill="#453536" />
    <path
        d="M56.3164 295.394V293.49H46.9563V295.394H48.86V297.298H50.6051V299.202H52.6675V301.106H54.4127V303.01H52.8262V306.5H56.3164V310.308H59.8066V306.817H58.0615V295.394H56.3164Z"
        fill="#453536" />
    <path
        d="M50.6051 306.5V303.01H48.7014V301.106H45.2112V303.01H41.4036V301.106H39.4999V308.245H41.4036V310.308H46.7976V308.404H48.7014V306.5H50.6051Z"
        fill="#453536" />
    <path
        d="M33.7886 293.49H26.4909V295.553H24.7458V301.106H23.0007V308.404H24.5871V302.692H26.4909V303.01V304.755H28.3946V303.01H30.2984V304.755H32.2022V303.01H33.9473V301.106H35.6924V297.298H33.7886V293.49Z"
        fill="#453536" />
    <path d="M256.33 380.172H261.374L263.055 405.952H255.209L256.33 380.172Z" fill="#67441B" />
    <circle cx="258.852" cy="369.804" r="14.8516" fill="#78C9B8" />
    <g style="mix-blend-mode:multiply">
        <path fill-rule="evenodd" clip-rule="evenodd"
            d="M258.852 384.655C267.054 384.655 273.703 378.006 273.703 369.804C273.703 361.601 267.054 354.952 258.852 354.952V384.655Z"
            fill="#78C9B8" />
    </g>
    <g style="mix-blend-mode:multiply">
        <rect x="216" y="393.952" width="50" height="23" rx="11.5" fill="#E9F6F4" />
    </g>
    <path d="M249.33 621.172H254.374L256.055 646.952H248.209L249.33 621.172Z" fill="#67441B" />
    <circle cx="251.852" cy="610.804" r="14.8516" fill="#78C9B8" />
    <g style="mix-blend-mode:multiply">
        <path fill-rule="evenodd" clip-rule="evenodd"
            d="M251.852 625.655C260.054 625.655 266.703 619.006 266.703 610.804C266.703 602.601 260.054 595.952 251.852 595.952V625.655Z"
            fill="#78C9B8" />
    </g>
    <g style="mix-blend-mode:multiply">
        <rect x="216" y="635" width="50" height="23" rx="11.5" fill="#E9F6F4" />
    </g>
    <path d="M63.3299 256.172H68.3738L70.0551 281.952H62.209L63.3299 256.172Z" fill="#67441B" />
    <circle cx="65.8516" cy="245.804" r="14.8516" fill="#78C9B8" />
    <g style="mix-blend-mode:multiply">
        <path fill-rule="evenodd" clip-rule="evenodd"
            d="M65.8516 260.655C74.0539 260.655 80.7032 254.006 80.7032 245.804C80.7032 237.601 74.0539 230.952 65.8516 230.952V260.655Z"
            fill="#78C9B8" />
    </g>
    <g style="mix-blend-mode:multiply">
        <rect x="30" y="269.952" width="50" height="23" rx="11.5" fill="#E9F6F4" />
    </g>
    <path d="M42.3299 118.172H47.3738L49.0551 143.952H41.209L42.3299 118.172Z" fill="#67441B" />
    <circle cx="44.8516" cy="107.804" r="14.8516" fill="#78C9B8" />
    <g style="mix-blend-mode:multiply">
        <path fill-rule="evenodd" clip-rule="evenodd"
            d="M44.8516 122.655C53.0539 122.655 59.7032 116.006 59.7032 107.804C59.7032 99.6012 53.0539 92.9519 44.8516 92.9519V122.655Z"
            fill="#78C9B8" />
    </g>
    <g style="mix-blend-mode:multiply">
        <rect x="9" y="131.952" width="50" height="23" rx="11.5" fill="#E9F6F4" />
    </g>
    <defs>
        <filter id="filter0_d_999_148" x="0" y="0" width="323" height="728" filterUnits="userSpaceOnUse"
            color-interpolation-filters="sRGB">
            <feFlood flood-opacity="0" result="BackgroundImageFix" />
            <feColorMatrix in="SourceAlpha" type="matrix" values="0 0 0 0 0 0 0 0 0 0 0 0 0 0 0 0 0 0 127 0"
                result="hardAlpha" />
            <feOffset dx="8" dy="8" />
            <feComposite in2="hardAlpha" operator="out" />
            <feColorMatrix type="matrix" values="0 0 0 0 0.166562 0 0 0 0 0.516771 0 0 0 0 0.44327 0 0 0 1 0" />
            <feBlend mode="normal" in2="BackgroundImageFix" result="effect1_dropShadow_999_148" />
            <feBlend mode="normal" in="SourceGraphic" in2="effect1_dropShadow_999_148" result="shape" />
        </filter>
    </defs>
</svg>